Blocksync-CondensedRegular.ufo
<glyph name="period" format="2">
  <advance width="217"/>
  <unicode hex="002E"/>
  <outline>
    <contour>
      <point x="69" y="0" type="curve" smooth="yes"/>
      <point x="149" y="0" type="line" smooth="yes"/>
      <point x="183" y="0"/>
      <point x="194" y="11"/>
      <point x="194" y="46" type="curve" smooth="yes"/>
      <point x="194" y="126" type="line" smooth="yes"/>
      <point x="194" y="160"/>
      <point x="183" y="171"/>
      <point x="149" y="171" type="curve" smooth="yes"/>
      <point x="69" y="171" type="line" smooth="yes"/>
      <point x="34" y="171"/>
      <point x="23" y="160"/>
      <point x="23" y="126" type="curve" smooth="yes"/>
      <point x="23" y="46" type="line" smooth="yes"/>
      <point x="23" y="11"/>
      <point x="34" y="0"/>
    </contour>
  </outline>
</glyph>
<glyph name="two" format="2">
  <advance width="526"/>
  <unicode hex="0032"/>
  <outline>
    <contour>
      <point x="57" y="0" type="curve" smooth="yes"/>
      <point x="469" y="0" type="line" smooth="yes"/>
      <point x="503" y="0"/>
      <point x="514" y="11"/>
      <point x="514" y="46" type="curve" smooth="yes"/>
      <point x="514" y="126" type="line" smooth="yes"/>
      <point x="514" y="160"/>
      <point x="503" y="171"/>
      <point x="469" y="171" type="curve" smooth="yes"/>
      <point x="249" y="171" type="line" smooth="yes"/>
      <point x="232" y="171"/>
      <point x="226" y="177"/>
      <point x="226" y="194" type="curve" smooth="yes"/>
      <point x="226" y="219"/>
      <point x="254" y="256"/>
      <point x="325" y="305" type="curve" smooth="yes"/>
      <point x="395" y="354"/>
      <point x="514" y="446"/>
      <point x="514" y="583" type="curve" smooth="yes"/>
      <point x="514" y="732"/>
      <point x="429" y="812"/>
      <point x="269" y="812" type="curve" smooth="yes"/>
      <point x="109" y="812"/>
      <point x="23" y="732"/>
      <point x="23" y="572" type="curve" smooth="yes"/>
      <point x="23" y="537"/>
      <point x="34" y="526"/>
      <point x="69" y="526" type="curve" smooth="yes"/>
      <point x="171" y="526" type="line" smooth="yes"/>
      <point x="206" y="526"/>
      <point x="217" y="537"/>
      <point x="217" y="572" type="curve" smooth="yes"/>
      <point x="217" y="583" type="line" smooth="yes"/>
      <point x="217" y="617"/>
      <point x="234" y="640"/>
      <point x="263" y="640" type="curve" smooth="yes"/>
      <point x="291" y="640"/>
      <point x="309" y="617"/>
      <point x="309" y="583" type="curve" smooth="yes"/>
      <point x="309" y="510"/>
      <point x="270" y="475"/>
      <point x="187" y="418" type="curve" smooth="yes"/>
      <point x="53" y="325"/>
      <point x="11" y="218"/>
      <point x="11" y="114" type="curve" smooth="yes"/>
      <point x="11" y="46" type="line" smooth="yes"/>
      <point x="11" y="13"/>
      <point x="23" y="0"/>
    </contour>
  </outline>
</glyph>
<glyph name="equal" format="2">
  <advance width="594"/>
  <unicode hex="003D"/>
  <outline>
    <contour>
      <point x="69" y="446" type="curve" smooth="yes"/>
      <point x="526" y="446" type="line" smooth="yes"/>
      <point x="560" y="446"/>
      <point x="572" y="457"/>
      <point x="572" y="491" type="curve" smooth="yes"/>
      <point x="572" y="560" type="line" smooth="yes"/>
      <point x="572" y="594"/>
      <point x="560" y="606"/>
      <point x="526" y="606" type="curve" smooth="yes"/>
      <point x="69" y="606" type="line" smooth="yes"/>
      <point x="34" y="606"/>
      <point x="23" y="594"/>
      <point x="23" y="560" type="curve" smooth="yes"/>
      <point x="23" y="491" type="line" smooth="yes"/>
      <point x="23" y="457"/>
      <point x="34" y="446"/>
    </contour>
    <contour>
      <point x="69" y="126" type="curve" smooth="yes"/>
      <point x="526" y="126" type="line" smooth="yes"/>
      <point x="560" y="126"/>
      <point x="572" y="137"/>
      <point x="572" y="171" type="curve" smooth="yes"/>
      <point x="572" y="240" type="line" smooth="yes"/>
      <point x="572" y="274"/>
      <point x="560" y="286"/>
      <point x="526" y="286" type="curve" smooth="yes"/>
      <point x="69" y="286" type="line" smooth="yes"/>
      <point x="34" y="286"/>
      <point x="23" y="274"/>
      <point x="23" y="240" type="curve" smooth="yes"/>
      <point x="23" y="171" type="line" smooth="yes"/>
      <point x="23" y="137"/>
      <point x="34" y="126"/>
    </contour>
  </outline>
</glyph>
<glyph name="C" format="2">
  <advance width="526"/>
  <unicode hex="0043"/>
  <anchor x="271" y="800" name="top"/>
  <outline>
    <contour>
      <point x="271" y="-11" type="curve" smooth="yes"/>
      <point x="431" y="-11"/>
      <point x="511" y="69"/>
      <point x="511" y="229" type="curve" smooth="yes"/>
      <point x="511" y="280" type="line" smooth="yes"/>
      <point x="511" y="314"/>
      <point x="499" y="326"/>
      <point x="465" y="326" type="curve" smooth="yes"/>
      <point x="362" y="326" type="line" smooth="yes"/>
      <point x="328" y="326"/>
      <point x="317" y="314"/>
      <point x="317" y="280" type="curve" smooth="yes"/>
      <point x="317" y="217" type="line" smooth="yes"/>
      <point x="317" y="183"/>
      <point x="305" y="160"/>
      <point x="271" y="160" type="curve" smooth="yes"/>
      <point x="237" y="160"/>
      <point x="225" y="183"/>
      <point x="225" y="217" type="curve" smooth="yes"/>
      <point x="225" y="583" type="line" smooth="yes"/>
      <point x="225" y="617"/>
      <point x="237" y="640"/>
      <point x="271" y="640" type="curve" smooth="yes"/>
      <point x="305" y="640"/>
      <point x="317" y="617"/>
      <point x="317" y="583" type="curve" smooth="yes"/>
      <point x="317" y="531" type="line" smooth="yes"/>
      <point x="317" y="497"/>
      <point x="328" y="486"/>
      <point x="362" y="486" type="curve" smooth="yes"/>
      <point x="465" y="486" type="line" smooth="yes"/>
      <point x="499" y="486"/>
      <point x="511" y="497"/>
      <point x="511" y="531" type="curve" smooth="yes"/>
      <point x="511" y="572" type="line" smooth="yes"/>
      <point x="511" y="732"/>
      <point x="431" y="812"/>
      <point x="271" y="812" type="curve" smooth="yes"/>
      <point x="111" y="812"/>
      <point x="19" y="732"/>
      <point x="19" y="572" type="curve" smooth="yes"/>
      <point x="19" y="229" type="line" smooth="yes"/>
      <point x="19" y="69"/>
      <point x="111" y="-11"/>
    </contour>
  </outline>
</glyph>
<glyph name="D" format="2">
  <advance width="560"/>
  <unicode hex="0044"/>
  <anchor x="291" y="800" name="top"/>
  <outline>
    <contour>
      <point x="80" y="0" type="curve" smooth="yes"/>
      <point x="286" y="0" type="line" smooth="yes"/>
      <point x="423" y="0"/>
      <point x="526" y="114"/>
      <point x="526" y="343" type="curve" smooth="yes"/>
      <point x="526" y="457" type="line" smooth="yes"/>
      <point x="526" y="686"/>
      <point x="423" y="800"/>
      <point x="263" y="800" type="curve" smooth="yes"/>
      <point x="80" y="800" type="line" smooth="yes"/>
      <point x="57" y="800"/>
      <point x="46" y="789"/>
      <point x="46" y="766" type="curve" smooth="yes"/>
      <point x="46" y="34" type="line" smooth="yes"/>
      <point x="46" y="11"/>
      <point x="57" y="0"/>
    </contour>
    <contour>
      <point x="183" y="91" type="line" smooth="yes"/>
      <point x="166" y="91"/>
      <point x="160" y="97"/>
      <point x="160" y="114" type="curve" smooth="yes"/>
      <point x="160" y="686" type="line" smooth="yes"/>
      <point x="160" y="703"/>
      <point x="166" y="709"/>
      <point x="183" y="709" type="curve" smooth="yes"/>
      <point x="251" y="709" type="line" smooth="yes"/>
      <point x="331" y="709"/>
      <point x="423" y="674"/>
      <point x="423" y="423" type="curve" smooth="yes"/>
      <point x="423" y="377" type="line" smooth="yes"/>
      <point x="423" y="126"/>
      <point x="331" y="91"/>
      <point x="251" y="91" type="curve" smooth="yes"/>
    </contour>
  </outline>
</glyph>
<glyph name="E" format="2">
  <advance width="434"/>
  <unicode hex="0045"/>
  <image fileName="../../../../Desktop/Screenshot 2023-02-24 at 11.51.48 PM.png" xScale="7.5389" yScale="7.5389" xOffset="-1058" yOffset="-301"/>
  <anchor x="230" y="800" name="top"/>
  <outline>
    <contour>
      <point x="103" y="0" type="curve" smooth="yes"/>
      <point x="343" y="0" type="line" smooth="yes"/>
      <point x="377" y="0"/>
      <point x="389" y="11"/>
      <point x="389" y="46" type="curve" smooth="yes"/>
      <point x="389" y="46" type="line" smooth="yes"/>
      <point x="389" y="80"/>
      <point x="377" y="91"/>
      <point x="343" y="91" type="curve" smooth="yes"/>
      <point x="171" y="91" type="line" smooth="yes"/>
      <point x="154" y="91"/>
      <point x="149" y="97"/>
      <point x="149" y="114" type="curve" smooth="yes"/>
      <point x="149" y="343" type="line" smooth="yes"/>
      <point x="149" y="360"/>
      <point x="154" y="366"/>
      <point x="171" y="366" type="curve" smooth="yes"/>
      <point x="286" y="366" type="line" smooth="yes"/>
      <point x="320" y="366"/>
      <point x="331" y="377"/>
      <point x="331" y="411" type="curve" smooth="yes"/>
      <point x="331" y="423" type="line" smooth="yes"/>
      <point x="331" y="457"/>
      <point x="320" y="469"/>
      <point x="286" y="469" type="curve" smooth="yes"/>
      <point x="171" y="469" type="line" smooth="yes"/>
      <point x="154" y="469"/>
      <point x="149" y="474"/>
      <point x="149" y="491" type="curve" smooth="yes"/>
      <point x="149" y="674" type="line" smooth="yes"/>
      <point x="149" y="692"/>
      <point x="154" y="697"/>
      <point x="171" y="697" type="curve" smooth="yes"/>
      <point x="343" y="697" type="line" smooth="yes"/>
      <point x="377" y="697"/>
      <point x="389" y="709"/>
      <point x="389" y="743" type="curve" smooth="yes"/>
      <point x="389" y="754" type="line" smooth="yes"/>
      <point x="389" y="789"/>
      <point x="377" y="800"/>
      <point x="343" y="800" type="curve" smooth="yes"/>
      <point x="103" y="800" type="line" smooth="yes"/>
      <point x="69" y="800"/>
      <point x="57" y="789"/>
      <point x="57" y="754" type="curve" smooth="yes"/>
      <point x="57" y="46" type="line" smooth="yes"/>
      <point x="57" y="11"/>
      <point x="69" y="0"/>
    </contour>
  </outline>
</glyph>
<glyph name="G" format="2">
  <advance width="537"/>
  <unicode hex="0047"/>
  <anchor x="272" y="0" name="bottom"/>
  <anchor x="278" y="800" name="top"/>
  <outline>
    <contour>
      <point x="251" y="-11" type="curve" smooth="yes"/>
      <point x="354" y="-11"/>
      <point x="367" y="40"/>
      <point x="394" y="40" type="curve" smooth="yes"/>
      <point x="417" y="40"/>
      <point x="440" y="0"/>
      <point x="475" y="0" type="curve" smooth="yes"/>
      <point x="503" y="0"/>
      <point x="514" y="11"/>
      <point x="514" y="46" type="curve" smooth="yes"/>
      <point x="514" y="343" type="line" smooth="yes"/>
      <point x="514" y="377"/>
      <point x="502" y="389"/>
      <point x="469" y="389" type="curve" smooth="yes"/>
      <point x="337" y="389" type="line" smooth="yes"/>
      <point x="303" y="389"/>
      <point x="291" y="376"/>
      <point x="291" y="343" type="curve" smooth="yes"/>
      <point x="291" y="297" type="line" smooth="yes"/>
      <point x="291" y="264"/>
      <point x="303" y="251"/>
      <point x="337" y="251" type="curve" smooth="yes"/>
      <point x="349" y="251" type="line" smooth="yes"/>
      <point x="366" y="251"/>
      <point x="371" y="246"/>
      <point x="371" y="229" type="curve" smooth="yes"/>
      <point x="371" y="183"/>
      <point x="349" y="160"/>
      <point x="303" y="160" type="curve" smooth="yes"/>
      <point x="257" y="160"/>
      <point x="234" y="194"/>
      <point x="234" y="240" type="curve" smooth="yes"/>
      <point x="234" y="583" type="line" smooth="yes"/>
      <point x="234" y="617"/>
      <point x="246" y="640"/>
      <point x="280" y="640" type="curve" smooth="yes"/>
      <point x="314" y="640"/>
      <point x="326" y="617"/>
      <point x="326" y="583" type="curve" smooth="yes"/>
      <point x="326" y="531" type="line" smooth="yes"/>
      <point x="326" y="497"/>
      <point x="337" y="486"/>
      <point x="371" y="486" type="curve" smooth="yes"/>
      <point x="469" y="486" type="line" smooth="yes"/>
      <point x="503" y="486"/>
      <point x="514" y="497"/>
      <point x="514" y="531" type="curve" smooth="yes"/>
      <point x="514" y="572" type="line" smooth="yes"/>
      <point x="514" y="732"/>
      <point x="434" y="812"/>
      <point x="274" y="812" type="curve" smooth="yes"/>
      <point x="114" y="812"/>
      <point x="29" y="732"/>
      <point x="29" y="572" type="curve" smooth="yes"/>
      <point x="29" y="229" type="line" smooth="yes"/>
      <point x="29" y="69"/>
      <point x="114" y="-11"/>
    </contour>
  </outline>
</glyph>
<glyph name="H" format="2">
  <advance width="572"/>
  <unicode hex="0048"/>
  <outline>
    <contour>
      <point x="80" y="0" type="curve" smooth="yes"/>
      <point x="194" y="0" type="line" smooth="yes"/>
      <point x="229" y="0"/>
      <point x="240" y="11"/>
      <point x="240" y="46" type="curve" smooth="yes"/>
      <point x="240" y="320" type="line" smooth="yes"/>
      <point x="240" y="337"/>
      <point x="246" y="343"/>
      <point x="263" y="343" type="curve" smooth="yes"/>
      <point x="309" y="343" type="line" smooth="yes"/>
      <point x="326" y="343"/>
      <point x="331" y="337"/>
      <point x="331" y="320" type="curve" smooth="yes"/>
      <point x="331" y="46" type="line" smooth="yes"/>
      <point x="331" y="11"/>
      <point x="343" y="0"/>
      <point x="377" y="0" type="curve" smooth="yes"/>
      <point x="491" y="0" type="line" smooth="yes"/>
      <point x="526" y="0"/>
      <point x="537" y="11"/>
      <point x="537" y="46" type="curve" smooth="yes"/>
      <point x="537" y="754" type="line" smooth="yes"/>
      <point x="537" y="789"/>
      <point x="526" y="800"/>
      <point x="491" y="800" type="curve" smooth="yes"/>
      <point x="377" y="800" type="line" smooth="yes"/>
      <point x="343" y="800"/>
      <point x="331" y="789"/>
      <point x="331" y="754" type="curve" smooth="yes"/>
      <point x="331" y="537" type="line" smooth="yes"/>
      <point x="331" y="520"/>
      <point x="326" y="514"/>
      <point x="309" y="514" type="curve" smooth="yes"/>
      <point x="263" y="514" type="line" smooth="yes"/>
      <point x="246" y="514"/>
      <point x="240" y="520"/>
      <point x="240" y="537" type="curve" smooth="yes"/>
      <point x="240" y="754" type="line" smooth="yes"/>
      <point x="240" y="789"/>
      <point x="229" y="800"/>
      <point x="194" y="800" type="curve" smooth="yes"/>
      <point x="80" y="800" type="line" smooth="yes"/>
      <point x="46" y="800"/>
      <point x="34" y="789"/>
      <point x="34" y="754" type="curve" smooth="yes"/>
      <point x="34" y="46" type="line" smooth="yes"/>
      <point x="34" y="11"/>
      <point x="46" y="0"/>
    </contour>
  </outline>
</glyph>
<glyph name="I" format="2">
  <advance width="274"/>
  <unicode hex="0049"/>
  <anchor x="137" y="800" name="top"/>
  <outline>
    <contour>
      <point x="114" y="0" type="curve" smooth="yes"/>
      <point x="160" y="0" type="line" smooth="yes"/>
      <point x="183" y="0"/>
      <point x="194" y="11"/>
      <point x="194" y="34" type="curve" smooth="yes"/>
      <point x="194" y="766" type="line" smooth="yes"/>
      <point x="194" y="789"/>
      <point x="183" y="800"/>
      <point x="160" y="800" type="curve" smooth="yes"/>
      <point x="114" y="800" type="line" smooth="yes"/>
      <point x="91" y="800"/>
      <point x="80" y="789"/>
      <point x="80" y="766" type="curve" smooth="yes"/>
      <point x="80" y="34" type="line" smooth="yes"/>
      <point x="80" y="11"/>
      <point x="91" y="0"/>
    </contour>
  </outline>
</glyph>
<glyph name="L" format="2">
  <advance width="400"/>
  <unicode hex="004C"/>
  <anchor x="211" y="0" name="bottom"/>
  <anchor x="223" y="800" name="topright"/>
  <outline>
    <contour>
      <point x="57" y="0" type="curve" smooth="yes"/>
      <point x="354" y="0" type="line" smooth="yes"/>
      <point x="377" y="0"/>
      <point x="389" y="11"/>
      <point x="389" y="34" type="curve" smooth="yes"/>
      <point x="389" y="69" type="line" smooth="yes"/>
      <point x="389" y="91"/>
      <point x="377" y="103"/>
      <point x="354" y="103" type="curve" smooth="yes"/>
      <point x="160" y="103" type="line" smooth="yes"/>
      <point x="143" y="103"/>
      <point x="137" y="109"/>
      <point x="137" y="126" type="curve" smooth="yes"/>
      <point x="137" y="766" type="line" smooth="yes"/>
      <point x="137" y="789"/>
      <point x="126" y="800"/>
      <point x="103" y="800" type="curve" smooth="yes"/>
      <point x="57" y="800" type="line" smooth="yes"/>
      <point x="34" y="800"/>
      <point x="23" y="789"/>
      <point x="23" y="766" type="curve" smooth="yes"/>
      <point x="23" y="34" type="line" smooth="yes"/>
      <point x="23" y="11"/>
      <point x="34" y="0"/>
    </contour>
  </outline>
</glyph>
<glyph name="N" format="2">
  <advance width="594"/>
  <unicode hex="004E"/>
  <anchor x="280" y="0" name="bottom"/>
  <anchor x="286" y="800" name="top"/>
  <outline>
    <contour>
      <point x="80" y="0" type="curve" smooth="yes"/>
      <point x="183" y="0" type="line" smooth="yes"/>
      <point x="217" y="0"/>
      <point x="229" y="11"/>
      <point x="229" y="46" type="curve" smooth="yes"/>
      <point x="229" y="423" type="line" smooth="yes"/>
      <point x="229" y="441"/>
      <point x="235" y="446"/>
      <point x="243" y="446" type="curve" smooth="yes"/>
      <point x="250" y="446"/>
      <point x="256" y="439"/>
      <point x="258" y="423" type="curve" smooth="yes"/>
      <point x="323" y="46" type="line" smooth="yes"/>
      <point x="330" y="7"/>
      <point x="347" y="0"/>
      <point x="375" y="0" type="curve" smooth="yes"/>
      <point x="514" y="0" type="line" smooth="yes"/>
      <point x="549" y="0"/>
      <point x="560" y="11"/>
      <point x="560" y="46" type="curve" smooth="yes"/>
      <point x="560" y="754" type="line" smooth="yes"/>
      <point x="560" y="789"/>
      <point x="549" y="800"/>
      <point x="514" y="800" type="curve" smooth="yes"/>
      <point x="411" y="800" type="line" smooth="yes"/>
      <point x="377" y="800"/>
      <point x="366" y="789"/>
      <point x="366" y="754" type="curve" smooth="yes"/>
      <point x="366" y="377" type="line" smooth="yes"/>
      <point x="366" y="361"/>
      <point x="361" y="354"/>
      <point x="351" y="354" type="curve" smooth="yes"/>
      <point x="342" y="354"/>
      <point x="338" y="363"/>
      <point x="336" y="377" type="curve" smooth="yes"/>
      <point x="271" y="754" type="line" smooth="yes"/>
      <point x="264" y="794"/>
      <point x="246" y="800"/>
      <point x="217" y="800" type="curve" smooth="yes"/>
      <point x="80" y="800" type="line" smooth="yes"/>
      <point x="46" y="800"/>
      <point x="34" y="789"/>
      <point x="34" y="754" type="curve" smooth="yes"/>
      <point x="34" y="46" type="line" smooth="yes"/>
      <point x="34" y="11"/>
      <point x="46" y="0"/>
    </contour>
  </outline>
</glyph>
<glyph name="O" format="2">
  <advance width="560"/>
  <unicode hex="004F"/>
  <anchor x="280" y="800" name="top"/>
  <outline>
    <contour>
      <point x="280" y="-11" type="curve" smooth="yes"/>
      <point x="440" y="-11"/>
      <point x="531" y="69"/>
      <point x="531" y="229" type="curve" smooth="yes"/>
      <point x="531" y="572" type="line" smooth="yes"/>
      <point x="531" y="732"/>
      <point x="440" y="812"/>
      <point x="280" y="812" type="curve" smooth="yes"/>
      <point x="120" y="812"/>
      <point x="29" y="732"/>
      <point x="29" y="572" type="curve" smooth="yes"/>
      <point x="29" y="229" type="line" smooth="yes"/>
      <point x="29" y="69"/>
      <point x="120" y="-11"/>
    </contour>
    <contour>
      <point x="280" y="160" type="curve" smooth="yes"/>
      <point x="246" y="160"/>
      <point x="234" y="183"/>
      <point x="234" y="217" type="curve" smooth="yes"/>
      <point x="234" y="583" type="line" smooth="yes"/>
      <point x="234" y="617"/>
      <point x="246" y="640"/>
      <point x="280" y="640" type="curve" smooth="yes"/>
      <point x="314" y="640"/>
      <point x="326" y="617"/>
      <point x="326" y="583" type="curve" smooth="yes"/>
      <point x="326" y="217" type="line" smooth="yes"/>
      <point x="326" y="183"/>
      <point x="314" y="160"/>
    </contour>
  </outline>
</glyph>
<glyph name="P" format="2">
  <advance width="537"/>
  <unicode hex="0050"/>
  <outline>
    <contour>
      <point x="103" y="0" type="curve" smooth="yes"/>
      <point x="126" y="0" type="line" smooth="yes"/>
      <point x="160" y="0"/>
      <point x="171" y="11"/>
      <point x="171" y="46" type="curve" smooth="yes"/>
      <point x="171" y="274" type="line" smooth="yes"/>
      <point x="171" y="291"/>
      <point x="177" y="297"/>
      <point x="194" y="297" type="curve" smooth="yes"/>
      <point x="263" y="297" type="line" smooth="yes"/>
      <point x="423" y="297"/>
      <point x="480" y="354"/>
      <point x="480" y="503" type="curve" smooth="yes"/>
      <point x="480" y="583" type="line" smooth="yes"/>
      <point x="480" y="732"/>
      <point x="434" y="800"/>
      <point x="274" y="800" type="curve" smooth="yes"/>
      <point x="103" y="800" type="line" smooth="yes"/>
      <point x="69" y="800"/>
      <point x="57" y="789"/>
      <point x="57" y="754" type="curve" smooth="yes"/>
      <point x="57" y="46" type="line" smooth="yes"/>
      <point x="57" y="11"/>
      <point x="69" y="0"/>
    </contour>
    <contour>
      <point x="194" y="389" type="line" smooth="yes"/>
      <point x="177" y="389"/>
      <point x="171" y="394"/>
      <point x="171" y="411" type="curve" smooth="yes"/>
      <point x="171" y="674" type="line" smooth="yes"/>
      <point x="171" y="692"/>
      <point x="177" y="697"/>
      <point x="194" y="697" type="curve" smooth="yes"/>
      <point x="297" y="697" type="line" smooth="yes"/>
      <point x="343" y="697"/>
      <point x="377" y="663"/>
      <point x="377" y="617" type="curve" smooth="yes"/>
      <point x="377" y="469" type="line" smooth="yes"/>
      <point x="377" y="423"/>
      <point x="343" y="389"/>
      <point x="297" y="389" type="curve" smooth="yes"/>
    </contour>
  </outline>
</glyph>
<glyph name="U" format="2">
  <advance width="549"/>
  <unicode hex="0055"/>
  <anchor x="278" y="800" name="top"/>
  <outline>
    <contour>
      <point x="274" y="-11" type="curve" smooth="yes"/>
      <point x="434" y="-11"/>
      <point x="520" y="69"/>
      <point x="520" y="229" type="curve" smooth="yes"/>
      <point x="520" y="754" type="line" smooth="yes"/>
      <point x="520" y="789"/>
      <point x="509" y="800"/>
      <point x="474" y="800" type="curve" smooth="yes"/>
      <point x="360" y="800" type="line" smooth="yes"/>
      <point x="326" y="800"/>
      <point x="314" y="789"/>
      <point x="314" y="754" type="curve" smooth="yes"/>
      <point x="314" y="217" type="line" smooth="yes"/>
      <point x="314" y="171"/>
      <point x="297" y="160"/>
      <point x="274" y="160" type="curve" smooth="yes"/>
      <point x="251" y="160"/>
      <point x="234" y="171"/>
      <point x="234" y="217" type="curve" smooth="yes"/>
      <point x="234" y="754" type="line" smooth="yes"/>
      <point x="234" y="789"/>
      <point x="223" y="800"/>
      <point x="189" y="800" type="curve" smooth="yes"/>
      <point x="74" y="800" type="line" smooth="yes"/>
      <point x="40" y="800"/>
      <point x="29" y="789"/>
      <point x="29" y="754" type="curve" smooth="yes"/>
      <point x="29" y="229" type="line" smooth="yes"/>
      <point x="29" y="69"/>
      <point x="114" y="-11"/>
    </contour>
  </outline>
</glyph>
<glyph name="W" format="2">
  <advance width="754"/>
  <unicode hex="0057"/>
  <anchor x="382" y="800" name="top"/>
  <outline>
    <contour>
      <point x="154" y="0" type="curve" smooth="yes"/>
      <point x="288" y="0" type="line" smooth="yes"/>
      <point x="317" y="0"/>
      <point x="331" y="17"/>
      <point x="334" y="46" type="curve" smooth="yes"/>
      <point x="366" y="425" type="line" smooth="yes"/>
      <point x="367" y="439"/>
      <point x="371" y="446"/>
      <point x="377" y="446" type="curve" smooth="yes"/>
      <point x="383" y="446"/>
      <point x="387" y="439"/>
      <point x="389" y="425" type="curve" smooth="yes"/>
      <point x="421" y="46" type="line" smooth="yes"/>
      <point x="423" y="17"/>
      <point x="438" y="0"/>
      <point x="466" y="0" type="curve" smooth="yes"/>
      <point x="600" y="0" type="line" smooth="yes"/>
      <point x="629" y="0"/>
      <point x="641" y="11"/>
      <point x="646" y="46" type="curve" smooth="yes"/>
      <point x="734" y="702" type="line" smooth="yes"/>
      <point x="738" y="740"/>
      <point x="743" y="754"/>
      <point x="743" y="766" type="curve" smooth="yes"/>
      <point x="743" y="789"/>
      <point x="732" y="800"/>
      <point x="709" y="800" type="curve" smooth="yes"/>
      <point x="583" y="800" type="line" smooth="yes"/>
      <point x="549" y="800"/>
      <point x="539" y="789"/>
      <point x="537" y="754" type="curve" smooth="yes"/>
      <point x="509" y="377" type="line" smooth="yes"/>
      <point x="507" y="361"/>
      <point x="503" y="354"/>
      <point x="491" y="354" type="curve" smooth="yes"/>
      <point x="480" y="354"/>
      <point x="475" y="361"/>
      <point x="474" y="377" type="curve" smooth="yes"/>
      <point x="446" y="754" type="line" smooth="yes"/>
      <point x="442" y="786"/>
      <point x="432" y="800"/>
      <point x="406" y="800" type="curve" smooth="yes"/>
      <point x="360" y="800" type="line" smooth="yes"/>
      <point x="334" y="800"/>
      <point x="323" y="786"/>
      <point x="320" y="754" type="curve" smooth="yes"/>
      <point x="291" y="377" type="line" smooth="yes"/>
      <point x="290" y="361"/>
      <point x="286" y="354"/>
      <point x="274" y="354" type="curve" smooth="yes"/>
      <point x="263" y="354"/>
      <point x="258" y="360"/>
      <point x="257" y="377" type="curve" smooth="yes"/>
      <point x="229" y="754" type="line" smooth="yes"/>
      <point x="226" y="790"/>
      <point x="217" y="800"/>
      <point x="183" y="800" type="curve" smooth="yes"/>
      <point x="46" y="800" type="line" smooth="yes"/>
      <point x="23" y="800"/>
      <point x="11" y="789"/>
      <point x="11" y="766" type="curve" smooth="yes"/>
      <point x="11" y="754"/>
      <point x="16" y="740"/>
      <point x="21" y="702" type="curve" smooth="yes"/>
      <point x="109" y="46" type="line" smooth="yes"/>
      <point x="113" y="11"/>
      <point x="126" y="0"/>
    </contour>
  </outline>
</glyph>
<glyph name="X" format="2">
  <advance width="514"/>
  <unicode hex="0058"/>
  <outline>
    <contour>
      <point x="46" y="0" type="curve" smooth="yes"/>
      <point x="171" y="0" type="line" smooth="yes"/>
      <point x="194" y="0"/>
      <point x="214" y="11"/>
      <point x="217" y="34" type="curve" smooth="yes"/>
      <point x="249" y="261" type="line" smooth="yes"/>
      <point x="253" y="281"/>
      <point x="256" y="286"/>
      <point x="263" y="286" type="curve" smooth="yes"/>
      <point x="270" y="286"/>
      <point x="273" y="281"/>
      <point x="277" y="259" type="curve" smooth="yes"/>
      <point x="309" y="34" type="line" smooth="yes"/>
      <point x="312" y="11"/>
      <point x="320" y="0"/>
      <point x="343" y="0" type="curve" smooth="yes"/>
      <point x="469" y="0" type="line" smooth="yes"/>
      <point x="491" y="0"/>
      <point x="503" y="11"/>
      <point x="503" y="34" type="curve" smooth="yes"/>
      <point x="503" y="46"/>
      <point x="497" y="62"/>
      <point x="491" y="86" type="curve" smooth="yes"/>
      <point x="429" y="368" type="line" smooth="yes"/>
      <point x="422" y="400"/>
      <point x="417" y="407"/>
      <point x="417" y="418" type="curve" smooth="yes"/>
      <point x="417" y="430"/>
      <point x="421" y="437"/>
      <point x="429" y="469" type="curve" smooth="yes"/>
      <point x="491" y="714" type="line" smooth="yes"/>
      <point x="497" y="738"/>
      <point x="503" y="754"/>
      <point x="503" y="766" type="curve" smooth="yes"/>
      <point x="503" y="789"/>
      <point x="491" y="800"/>
      <point x="469" y="800" type="curve" smooth="yes"/>
      <point x="343" y="800" type="line" smooth="yes"/>
      <point x="320" y="800"/>
      <point x="312" y="789"/>
      <point x="309" y="766" type="curve" smooth="yes"/>
      <point x="277" y="577" type="line" smooth="yes"/>
      <point x="273" y="555"/>
      <point x="270" y="551"/>
      <point x="263" y="551" type="curve" smooth="yes"/>
      <point x="256" y="551"/>
      <point x="253" y="555"/>
      <point x="249" y="576" type="curve" smooth="yes"/>
      <point x="217" y="766" type="line" smooth="yes"/>
      <point x="214" y="789"/>
      <point x="194" y="800"/>
      <point x="171" y="800" type="curve" smooth="yes"/>
      <point x="46" y="800" type="line" smooth="yes"/>
      <point x="23" y="800"/>
      <point x="11" y="789"/>
      <point x="11" y="766" type="curve" smooth="yes"/>
      <point x="11" y="754"/>
      <point x="16" y="738"/>
      <point x="23" y="714" type="curve" smooth="yes"/>
      <point x="97" y="469" type="line" smooth="yes"/>
      <point x="107" y="437"/>
      <point x="109" y="430"/>
      <point x="109" y="418" type="curve" smooth="yes"/>
      <point x="109" y="407"/>
      <point x="105" y="400"/>
      <point x="97" y="368" type="curve" smooth="yes"/>
      <point x="23" y="86" type="line" smooth="yes"/>
      <point x="16" y="62"/>
      <point x="11" y="46"/>
      <point x="11" y="34" type="curve" smooth="yes"/>
      <point x="11" y="11"/>
      <point x="23" y="0"/>
    </contour>
  </outline>
</glyph>
<glyph name="underscore" format="2">
  <advance width="572"/>
  <unicode hex="005F"/>
  <outline>
    <contour>
      <point x="69" y="-183" type="curve" smooth="yes"/>
      <point x="503" y="-183" type="line" smooth="yes"/>
      <point x="537" y="-183"/>
      <point x="549" y="-171"/>
      <point x="549" y="-137" type="curve" smooth="yes"/>
      <point x="549" y="-69" type="line" smooth="yes"/>
      <point x="549" y="-34"/>
      <point x="537" y="-23"/>
      <point x="503" y="-23" type="curve" smooth="yes"/>
      <point x="69" y="-23" type="line" smooth="yes"/>
      <point x="34" y="-23"/>
      <point x="23" y="-34"/>
      <point x="23" y="-69" type="curve" smooth="yes"/>
      <point x="23" y="-137" type="line" smooth="yes"/>
      <point x="23" y="-171"/>
      <point x="34" y="-183"/>
    </contour>
  </outline>
</glyph>
<glyph name="sterling" format="2">
  <advance width="526"/>
  <unicode hex="00A3"/>
  <outline>
    <contour>
      <point x="137" y="0" type="curve" smooth="yes"/>
      <point x="446" y="0" type="line" smooth="yes"/>
      <point x="480" y="0"/>
      <point x="491" y="11"/>
      <point x="491" y="46" type="curve" smooth="yes"/>
      <point x="491" y="126" type="line" smooth="yes"/>
      <point x="491" y="160"/>
      <point x="480" y="171"/>
      <point x="446" y="171" type="curve" smooth="yes"/>
      <point x="320" y="171" type="line" smooth="yes"/>
      <point x="303" y="171"/>
      <point x="297" y="177"/>
      <point x="297" y="194" type="curve" smooth="yes"/>
      <point x="297" y="754" type="line" smooth="yes"/>
      <point x="297" y="789"/>
      <point x="286" y="800"/>
      <point x="251" y="800" type="curve" smooth="yes"/>
      <point x="137" y="800" type="line" smooth="yes"/>
      <point x="103" y="800"/>
      <point x="91" y="789"/>
      <point x="91" y="754" type="curve" smooth="yes"/>
      <point x="91" y="46" type="line" smooth="yes"/>
      <point x="91" y="11"/>
      <point x="103" y="0"/>
    </contour>
    <contour>
      <point x="57" y="272" type="curve" smooth="yes"/>
      <point x="354" y="272" type="line" smooth="yes"/>
      <point x="389" y="272"/>
      <point x="400" y="283"/>
      <point x="400" y="318" type="curve" smooth="yes"/>
      <point x="400" y="320" type="line" smooth="yes"/>
      <point x="400" y="354"/>
      <point x="389" y="366"/>
      <point x="354" y="366" type="curve" smooth="yes"/>
      <point x="57" y="366" type="line" smooth="yes"/>
      <point x="23" y="366"/>
      <point x="11" y="354"/>
      <point x="11" y="320" type="curve" smooth="yes"/>
      <point x="11" y="318" type="line" smooth="yes"/>
      <point x="11" y="283"/>
      <point x="23" y="272"/>
    </contour>
  </outline>
</glyph>
<glyph name="brokenbar" format="2">
  <advance width="206"/>
  <unicode hex="00A6"/>
  <outline>
    <contour>
      <point x="69" y="457" type="curve" smooth="yes"/>
      <point x="137" y="457" type="line" smooth="yes"/>
      <point x="171" y="457"/>
      <point x="183" y="469"/>
      <point x="183" y="503" type="curve" smooth="yes"/>
      <point x="183" y="754" type="line" smooth="yes"/>
      <point x="183" y="789"/>
      <point x="171" y="800"/>
      <point x="137" y="800" type="curve" smooth="yes"/>
      <point x="69" y="800" type="line" smooth="yes"/>
      <point x="34" y="800"/>
      <point x="23" y="789"/>
      <point x="23" y="754" type="curve" smooth="yes"/>
      <point x="23" y="503" type="line" smooth="yes"/>
      <point x="23" y="469"/>
      <point x="34" y="457"/>
    </contour>
    <contour>
      <point x="69" y="0" type="curve" smooth="yes"/>
      <point x="137" y="0" type="line" smooth="yes"/>
      <point x="171" y="0"/>
      <point x="183" y="11"/>
      <point x="183" y="46" type="curve" smooth="yes"/>
      <point x="183" y="297" type="line" smooth="yes"/>
      <point x="183" y="331"/>
      <point x="171" y="343"/>
      <point x="137" y="343" type="curve" smooth="yes"/>
      <point x="69" y="343" type="line" smooth="yes"/>
      <point x="34" y="343"/>
      <point x="23" y="331"/>
      <point x="23" y="297" type="curve" smooth="yes"/>
      <point x="23" y="46" type="line" smooth="yes"/>
      <point x="23" y="11"/>
      <point x="34" y="0"/>
    </contour>
  </outline>
</glyph>
<glyph name="dieresis" format="2">
  <advance width="430"/>
  <unicode hex="00A8"/>
  <outline>
    <contour>
      <point x="280" y="717" type="curve" smooth="yes"/>
      <point x="323" y="717" type="line" smooth="yes"/>
      <point x="338" y="717"/>
      <point x="350" y="727"/>
      <point x="350" y="742" type="curve" smooth="yes"/>
      <point x="350" y="785" type="line" smooth="yes"/>
      <point x="350" y="800"/>
      <point x="338" y="812"/>
      <point x="323" y="812" type="curve" smooth="yes"/>
      <point x="280" y="812" type="line" smooth="yes"/>
      <point x="265" y="812"/>
      <point x="255" y="800"/>
      <point x="255" y="785" type="curve" smooth="yes"/>
      <point x="255" y="742" type="line" smooth="yes"/>
      <point x="255" y="727"/>
      <point x="265" y="717"/>
    </contour>
    <contour>
      <point x="105" y="717" type="curve" smooth="yes"/>
      <point x="149" y="717" type="line" smooth="yes"/>
      <point x="163" y="717"/>
      <point x="175" y="727"/>
      <point x="175" y="742" type="curve" smooth="yes"/>
      <point x="175" y="785" type="line" smooth="yes"/>
      <point x="175" y="800"/>
      <point x="163" y="812"/>
      <point x="149" y="812" type="curve" smooth="yes"/>
      <point x="105" y="812" type="line" smooth="yes"/>
      <point x="90" y="812"/>
      <point x="80" y="800"/>
      <point x="80" y="785" type="curve" smooth="yes"/>
      <point x="80" y="742" type="line" smooth="yes"/>
      <point x="80" y="727"/>
      <point x="90" y="717"/>
    </contour>
  </outline>
</glyph>
<glyph name="registered" format="2">
  <advance width="469"/>
  <unicode hex="00AE"/>
  <outline>
    <contour>
      <point x="234" y="361" type="curve" smooth="yes"/>
      <point x="357" y="361"/>
      <point x="457" y="461"/>
      <point x="457" y="584" type="curve" smooth="yes"/>
      <point x="457" y="706"/>
      <point x="357" y="806"/>
      <point x="234" y="806" type="curve" smooth="yes"/>
      <point x="111" y="806"/>
      <point x="11" y="706"/>
      <point x="11" y="584" type="curve" smooth="yes"/>
      <point x="11" y="461"/>
      <point x="111" y="361"/>
    </contour>
    <contour>
      <point x="234" y="413" type="curve" smooth="yes"/>
      <point x="138" y="413"/>
      <point x="61" y="490"/>
      <point x="61" y="585" type="curve" smooth="yes"/>
      <point x="61" y="680"/>
      <point x="138" y="759"/>
      <point x="234" y="759" type="curve" smooth="yes"/>
      <point x="328" y="759"/>
      <point x="408" y="680"/>
      <point x="408" y="585" type="curve" smooth="yes"/>
      <point x="408" y="490"/>
      <point x="328" y="413"/>
    </contour>
    <contour>
      <point x="162" y="467" type="curve" smooth="yes"/>
      <point x="198" y="467" type="line" smooth="yes"/>
      <point x="208" y="467"/>
      <point x="211" y="471"/>
      <point x="211" y="481" type="curve" smooth="yes"/>
      <point x="211" y="559" type="line" smooth="yes"/>
      <point x="211" y="563"/>
      <point x="213" y="566"/>
      <point x="219" y="566" type="curve" smooth="yes"/>
      <point x="242" y="566" type="line" smooth="yes"/>
      <point x="261" y="566"/>
      <point x="267" y="559"/>
      <point x="267" y="538" type="curve" smooth="yes"/>
      <point x="267" y="496" type="line" smooth="yes"/>
      <point x="267" y="478"/>
      <point x="272" y="467"/>
      <point x="289" y="467" type="curve" smooth="yes"/>
      <point x="320" y="467" type="line" smooth="yes"/>
      <point x="330" y="467"/>
      <point x="335" y="471"/>
      <point x="335" y="477" type="curve" smooth="yes"/>
      <point x="335" y="482"/>
      <point x="330" y="482"/>
      <point x="330" y="496" type="curve" smooth="yes"/>
      <point x="330" y="541" type="line" smooth="yes"/>
      <point x="330" y="561"/>
      <point x="326" y="574"/>
      <point x="314" y="583" type="curve" smooth="yes"/>
      <point x="307" y="589"/>
      <point x="306" y="589"/>
      <point x="306" y="591" type="curve" smooth="yes"/>
      <point x="306" y="593"/>
      <point x="310" y="593"/>
      <point x="314" y="598" type="curve" smooth="yes"/>
      <point x="325" y="608"/>
      <point x="330" y="621"/>
      <point x="330" y="639" type="curve" smooth="yes"/>
      <point x="330" y="646" type="line" smooth="yes"/>
      <point x="330" y="693"/>
      <point x="303" y="713"/>
      <point x="257" y="713" type="curve" smooth="yes"/>
      <point x="162" y="713" type="line" smooth="yes"/>
      <point x="152" y="713"/>
      <point x="147" y="710"/>
      <point x="147" y="700" type="curve" smooth="yes"/>
      <point x="147" y="481" type="line" smooth="yes"/>
      <point x="147" y="471"/>
      <point x="152" y="467"/>
    </contour>
    <contour>
      <point x="219" y="615" type="line" smooth="yes"/>
      <point x="213" y="615"/>
      <point x="211" y="616"/>
      <point x="211" y="622" type="curve" smooth="yes"/>
      <point x="211" y="654" type="line" smooth="yes"/>
      <point x="211" y="658"/>
      <point x="213" y="661"/>
      <point x="219" y="661" type="curve" smooth="yes"/>
      <point x="242" y="661" type="line" smooth="yes"/>
      <point x="261" y="661"/>
      <point x="267" y="653"/>
      <point x="267" y="638" type="curve" smooth="yes"/>
      <point x="267" y="637" type="line" smooth="yes"/>
      <point x="267" y="624"/>
      <point x="261" y="615"/>
      <point x="242" y="615" type="curve" smooth="yes"/>
    </contour>
  </outline>
</glyph>
<glyph name="Hbar" format="2">
  <advance width="617"/>
  <unicode hex="0126"/>
  <outline>
    <contour>
      <point x="103" y="0" type="curve" smooth="yes"/>
      <point x="217" y="0" type="line" smooth="yes"/>
      <point x="251" y="0"/>
      <point x="263" y="11"/>
      <point x="263" y="46" type="curve" smooth="yes"/>
      <point x="263" y="320" type="line" smooth="yes"/>
      <point x="263" y="337"/>
      <point x="269" y="343"/>
      <point x="286" y="343" type="curve" smooth="yes"/>
      <point x="331" y="343" type="line" smooth="yes"/>
      <point x="349" y="343"/>
      <point x="354" y="337"/>
      <point x="354" y="320" type="curve" smooth="yes"/>
      <point x="354" y="46" type="line" smooth="yes"/>
      <point x="354" y="11"/>
      <point x="366" y="0"/>
      <point x="400" y="0" type="curve" smooth="yes"/>
      <point x="514" y="0" type="line" smooth="yes"/>
      <point x="549" y="0"/>
      <point x="560" y="11"/>
      <point x="560" y="46" type="curve" smooth="yes"/>
      <point x="560" y="572" type="line"/>
      <point x="583" y="572" type="line" smooth="yes"/>
      <point x="600" y="572"/>
      <point x="606" y="577"/>
      <point x="606" y="594" type="curve" smooth="yes"/>
      <point x="606" y="694" type="line" smooth="yes"/>
      <point x="606" y="711"/>
      <point x="600" y="717"/>
      <point x="583" y="717" type="curve" smooth="yes"/>
      <point x="560" y="717" type="line"/>
      <point x="560" y="754" type="line" smooth="yes"/>
      <point x="560" y="789"/>
      <point x="549" y="800"/>
      <point x="514" y="800" type="curve" smooth="yes"/>
      <point x="400" y="800" type="line" smooth="yes"/>
      <point x="366" y="800"/>
      <point x="354" y="789"/>
      <point x="354" y="754" type="curve" smooth="yes"/>
      <point x="354" y="717" type="line"/>
      <point x="263" y="717" type="line"/>
      <point x="263" y="754" type="line" smooth="yes"/>
      <point x="263" y="789"/>
      <point x="251" y="800"/>
      <point x="217" y="800" type="curve" smooth="yes"/>
      <point x="103" y="800" type="line" smooth="yes"/>
      <point x="69" y="800"/>
      <point x="57" y="789"/>
      <point x="57" y="754" type="curve" smooth="yes"/>
      <point x="57" y="717" type="line"/>
      <point x="34" y="717" type="line" smooth="yes"/>
      <point x="17" y="717"/>
      <point x="11" y="711"/>
      <point x="11" y="694" type="curve" smooth="yes"/>
      <point x="11" y="594" type="line" smooth="yes"/>
      <point x="11" y="577"/>
      <point x="17" y="572"/>
      <point x="34" y="572" type="curve" smooth="yes"/>
      <point x="57" y="572" type="line"/>
      <point x="57" y="46" type="line" smooth="yes"/>
      <point x="57" y="11"/>
      <point x="69" y="0"/>
    </contour>
    <contour>
      <point x="263" y="537" type="curve" smooth="yes"/>
      <point x="263" y="572" type="line"/>
      <point x="354" y="572" type="line"/>
      <point x="354" y="537" type="line" smooth="yes"/>
      <point x="354" y="520"/>
      <point x="349" y="514"/>
      <point x="331" y="514" type="curve" smooth="yes"/>
      <point x="286" y="514" type="line" smooth="yes"/>
      <point x="269" y="514"/>
      <point x="263" y="520"/>
    </contour>
  </outline>
</glyph>
<glyph name="Iogonek" format="2">
  <advance width="251"/>
  <unicode hex="012E"/>
  <outline>
    <contour>
      <point x="57" y="0" type="curve" smooth="yes"/>
      <point x="69" y="0"/>
      <point x="73" y="-5"/>
      <point x="73" y="-11" type="curve" smooth="yes"/>
      <point x="73" y="-34"/>
      <point x="21" y="-43"/>
      <point x="21" y="-105" type="curve" smooth="yes"/>
      <point x="21" y="-168"/>
      <point x="82" y="-199"/>
      <point x="194" y="-199" type="curve" smooth="yes"/>
      <point x="210" y="-199"/>
      <point x="217" y="-187"/>
      <point x="217" y="-176" type="curve" smooth="yes"/>
      <point x="217" y="-118" type="line" smooth="yes"/>
      <point x="217" y="-104"/>
      <point x="210" y="-95"/>
      <point x="194" y="-95" type="curve" smooth="yes"/>
      <point x="158" y="-95"/>
      <point x="126" y="-80"/>
      <point x="126" y="-57" type="curve" smooth="yes"/>
      <point x="126" y="-33"/>
      <point x="146" y="0"/>
      <point x="194" y="0" type="curve" smooth="yes"/>
      <point x="229" y="0"/>
      <point x="240" y="11"/>
      <point x="240" y="46" type="curve" smooth="yes"/>
      <point x="240" y="754" type="line" smooth="yes"/>
      <point x="240" y="789"/>
      <point x="229" y="800"/>
      <point x="194" y="800" type="curve" smooth="yes"/>
      <point x="57" y="800" type="line" smooth="yes"/>
      <point x="23" y="800"/>
      <point x="11" y="789"/>
      <point x="11" y="754" type="curve" smooth="yes"/>
      <point x="11" y="46" type="line" smooth="yes"/>
      <point x="11" y="11"/>
      <point x="23" y="0"/>
    </contour>
  </outline>
</glyph>
<glyph name="dotaccent" format="2">
  <advance width="251"/>
  <unicode hex="02D9"/>
  <outline>
    <contour>
      <point x="126" y="625" type="curve" smooth="yes"/>
      <point x="176" y="625"/>
      <point x="217" y="661"/>
      <point x="217" y="711" type="curve" smooth="yes"/>
      <point x="217" y="761"/>
      <point x="176" y="797"/>
      <point x="126" y="797" type="curve" smooth="yes"/>
      <point x="75" y="797"/>
      <point x="34" y="761"/>
      <point x="34" y="711" type="curve" smooth="yes"/>
      <point x="34" y="661"/>
      <point x="75" y="625"/>
    </contour>
  </outline>
</glyph>
<glyph name="ring" format="2">
  <advance width="343"/>
  <unicode hex="02DA"/>
  <outline>
    <contour>
      <point x="171" y="674" type="curve" smooth="yes"/>
      <point x="222" y="674"/>
      <point x="263" y="710"/>
      <point x="263" y="760" type="curve" smooth="yes"/>
      <point x="263" y="810"/>
      <point x="222" y="846"/>
      <point x="171" y="846" type="curve" smooth="yes"/>
      <point x="121" y="846"/>
      <point x="80" y="810"/>
      <point x="80" y="760" type="curve" smooth="yes"/>
      <point x="80" y="710"/>
      <point x="121" y="674"/>
    </contour>
    <contour>
      <point x="171" y="726" type="curve" smooth="yes"/>
      <point x="152" y="726"/>
      <point x="137" y="741"/>
      <point x="137" y="760" type="curve" smooth="yes"/>
      <point x="137" y="780"/>
      <point x="152" y="794"/>
      <point x="171" y="794" type="curve" smooth="yes"/>
      <point x="191" y="794"/>
      <point x="206" y="780"/>
      <point x="206" y="760" type="curve" smooth="yes"/>
      <point x="206" y="741"/>
      <point x="191" y="726"/>
    </contour>
  </outline>
</glyph>
<glyph name="guilsinglright" format="2">
  <advance width="320"/>
  <unicode hex="203A"/>
  <outline>
    <contour>
      <point x="297" y="354" type="curve" smooth="yes"/>
      <point x="297" y="375"/>
      <point x="291" y="395"/>
      <point x="286" y="406" type="curve" smooth="yes"/>
      <point x="161" y="617" type="line" smooth="yes"/>
      <point x="141" y="653"/>
      <point x="138" y="663"/>
      <point x="104" y="663" type="curve" smooth="yes"/>
      <point x="70" y="663" type="line" smooth="yes"/>
      <point x="40" y="663"/>
      <point x="23" y="655"/>
      <point x="23" y="630" type="curve" smooth="yes"/>
      <point x="23" y="624"/>
      <point x="22" y="617"/>
      <point x="25" y="612" type="curve" smooth="yes"/>
      <point x="150" y="400" type="line" smooth="yes"/>
      <point x="159" y="384"/>
      <point x="166" y="371"/>
      <point x="166" y="354" type="curve" smooth="yes"/>
      <point x="166" y="345"/>
      <point x="160" y="327"/>
      <point x="150" y="309" type="curve" smooth="yes"/>
      <point x="25" y="97" type="line" smooth="yes"/>
      <point x="22" y="91"/>
      <point x="23" y="85"/>
      <point x="23" y="79" type="curve" smooth="yes"/>
      <point x="23" y="54"/>
      <point x="40" y="46"/>
      <point x="70" y="46" type="curve" smooth="yes"/>
      <point x="104" y="46" type="line" smooth="yes"/>
      <point x="138" y="46"/>
      <point x="141" y="56"/>
      <point x="161" y="91" type="curve" smooth="yes"/>
      <point x="286" y="303" type="line" smooth="yes"/>
      <point x="294" y="317"/>
      <point x="297" y="336"/>
    </contour>
  </outline>
</glyph>
<glyph name="acutecomb.case" format="2">
  <anchor x="137" y="800" name="_top"/>
  <outline>
    <contour>
      <point x="95" y="846" type="curve" smooth="yes"/>
      <point x="175" y="846" type="line" smooth="yes"/>
      <point x="186" y="846"/>
      <point x="198" y="845"/>
      <point x="217" y="869" type="curve" smooth="yes"/>
      <point x="281" y="950" type="line" smooth="yes"/>
      <point x="290" y="962"/>
      <point x="297" y="970"/>
      <point x="297" y="982" type="curve" smooth="yes"/>
      <point x="297" y="998"/>
      <point x="286" y="1005"/>
      <point x="263" y="1005" type="curve" smooth="yes"/>
      <point x="163" y="1005" type="line" smooth="yes"/>
      <point x="141" y="1005"/>
      <point x="135" y="1006"/>
      <point x="118" y="970" type="curve" smooth="yes"/>
      <point x="83" y="898" type="line" smooth="yes"/>
      <point x="75" y="881"/>
      <point x="72" y="874"/>
      <point x="72" y="869" type="curve" smooth="yes"/>
      <point x="72" y="857"/>
      <point x="78" y="846"/>
    </contour>
  </outline>
</glyph>
